<svg width="804" height="670" viewBox="0 0 804 670" fill="none" xmlns="http://www.w3.org/2000/svg">
<path d="M391.138 609.438C278.347 609.435 170.844 583.337 130.084 557.365C61.7167 513.804 19.4593 358.7 123.322 201.169C160.099 145.393 228.968 96.1725 294.749 79.6524C345.897 66.806 395.359 60.5621 441.538 60.5621C576.239 60.5621 683.024 113.694 722.28 211.128C758.957 302.143 723.724 433.624 706.123 469.721C696.927 488.58 685.105 505.14 671.137 519.638H592.126C592.126 519.649 592.126 519.66 592.126 519.668C592.126 519.676 592.131 519.684 592.131 519.692C592.131 519.703 592.131 519.714 592.131 519.724C592.131 519.735 592.131 519.74 592.131 519.751C592.131 519.765 592.131 519.775 592.131 519.788C592.135 519.805 592.135 519.821 592.135 519.835C592.135 519.84 592.135 519.845 592.135 519.85C592.908 535.601 603.543 549.113 618.769 555.768C618.918 556.995 619.435 558.11 620.208 558.994C556.409 595.89 472.402 609.44 391.138 609.438ZM166.023 493.782L120.02 523.736C116.729 525.88 117.832 530.953 121.715 531.538L448.367 580.649C450.813 581.016 453.268 581.198 455.715 581.198C465.237 581.198 474.614 578.443 482.683 573.19L667.109 453.097C670.476 450.905 669.228 445.7 665.233 445.274L611.677 439.56L610.998 433.964L677.8 440.766C678.433 440.83 679.057 440.86 679.672 440.86C689.65 440.862 697.956 432.697 697.956 422.414V178.466C697.956 169 690.842 161.066 681.483 160.116L329.426 124.277C328.798 124.212 328.177 124.179 327.56 124.179C323.712 124.179 320.115 125.399 317.143 127.481C310.682 130.181 306.067 136.56 306.067 144.108V223.907L258.405 216.53L225.441 310.588L176.248 291.82L176.247 291.825C176.21 291.807 176.173 291.79 176.134 291.774C176.092 291.758 176.049 291.745 176.006 291.734C175.923 291.715 175.839 291.705 175.753 291.705C174.57 291.705 173.107 293.559 172.32 296.164C172.317 296.175 172.314 296.183 172.311 296.194C172.311 296.194 172.311 296.194 172.311 296.196C172.308 296.204 172.305 296.215 172.302 296.226C171.973 297.335 171.815 298.418 171.816 299.356C171.817 300.559 172.079 301.524 172.575 302.001C172.693 302.114 172.825 302.2 172.969 302.256C173.007 302.272 173.046 302.282 173.086 302.293L173.083 302.299L180.211 305.019C180.212 305.019 180.214 305.019 180.216 305.022L185.192 306.919L185.684 307.107H185.684L221.828 320.895L161.483 493.08L166.023 493.782Z" fill="#E8EEF9"/>
<path d="M229.215 120.385C229.215 123.54 226.657 126.095 223.502 126.095C220.348 126.095 217.79 123.54 217.79 120.385C217.79 117.23 220.348 114.672 223.502 114.672C226.657 114.672 229.215 117.23 229.215 120.385Z" fill="#2F459A"/>
<path d="M252.742 95.1307C250.101 95.1307 247.953 97.2784 247.953 99.9214C247.953 102.561 250.101 104.708 252.742 104.708C255.382 104.708 257.53 102.561 257.53 99.9214C257.53 97.2784 255.382 95.1307 252.742 95.1307ZM252.742 106.555C249.083 106.555 246.106 103.58 246.106 99.9214C246.106 96.2594 249.083 93.2838 252.742 93.2838C256.401 93.2838 259.378 96.2594 259.378 99.9214C259.378 103.58 256.401 106.555 252.742 106.555Z" fill="#2F459A"/>
<path d="M716.667 149.647H713.914V144.551H716.667V149.647Z" fill="#2F459A"/>
<path d="M716.667 138.752H713.914V133.656H716.667V138.752Z" fill="#2F459A"/>
<path d="M723.285 143.027H718.191V140.276H723.285V143.027Z" fill="#2F459A"/>
<path d="M712.39 143.028H707.294V140.275H712.39V143.028Z" fill="#2F459A"/>
<path d="M235.736 90.4617H233.064V85.5169H235.736V90.4617Z" fill="#2F459A"/>
<path d="M235.736 79.8832H233.064V74.9365H235.736V79.8832Z" fill="#2F459A"/>
<path d="M242.162 84.0392H237.216V81.3669H242.162V84.0392Z" fill="#2F459A"/>
<path d="M231.582 84.0392H226.636V81.3669H231.582V84.0392Z" fill="#2F459A"/>
<path d="M306.068 144.105V382.234C306.068 391.48 313.068 399.223 322.266 400.15L668.43 435.135C679.037 436.207 688.25 427.88 688.25 417.219V179.092C688.25 169.845 681.25 162.105 672.053 161.172L325.887 126.189C315.279 125.117 306.068 133.444 306.068 144.105Z" fill="#919ED8"/>
<path d="M320.752 158.051V374.879C320.752 383.297 327.265 390.345 335.822 391.192L657.881 423.049C667.748 424.025 676.32 416.443 676.32 406.734V189.908C676.32 181.489 669.806 174.44 661.25 173.594L339.191 141.736C329.323 140.761 320.752 148.346 320.752 158.051Z" fill="#E4E7F6"/>
<path d="M681.484 160.115L329.425 124.275C324.869 123.812 320.57 125.071 317.121 127.495C319.791 126.373 322.776 125.876 325.885 126.193L672.051 161.177C681.249 162.106 688.245 169.848 688.245 179.092V417.22C688.245 427.881 679.035 436.208 668.429 435.136L322.264 400.151C317.917 399.714 314.063 397.753 311.207 394.832C313.935 400.317 319.311 404.273 325.743 404.927L677.802 440.767C688.588 441.865 697.957 433.335 697.957 422.414V178.467C697.957 169 690.84 161.065 681.484 160.115Z" fill="#2F459A"/>
<path d="M665.235 445.274L305.921 406.951C302.279 406.562 298.618 407.441 295.55 409.44L120.02 523.737C116.729 525.881 117.832 530.954 121.715 531.538L448.367 580.649C460.333 582.447 472.541 579.794 482.68 573.191L667.11 453.098C670.475 450.905 669.225 445.701 665.235 445.274Z" fill="#919ED8"/>
<path d="M608.625 462.423L313.188 431.415C310.194 431.099 307.174 431.726 304.636 433.184L227.263 477.653C224.369 479.318 225.337 483.464 228.71 483.855L506.052 515.932C516.351 517.124 526.774 515.058 535.659 510.065L610.118 468.238C612.904 466.636 611.911 462.766 608.625 462.423Z" fill="#6571C0"/>
<path d="M416.059 523.345L296.657 509.522C295.446 509.382 294.221 509.623 293.189 510.202L261.691 527.861C260.513 528.523 260.886 530.203 262.25 530.375L374.326 544.552C378.488 545.08 382.715 544.287 386.333 542.306L416.638 525.703C417.772 525.068 417.386 523.498 416.059 523.345Z" fill="#6571C0"/>
<path d="M668.801 448.11C669.396 449.83 668.936 451.907 667.109 453.097L482.68 573.191C472.54 579.794 460.331 582.447 448.368 580.649L121.715 531.538C120.134 531.299 119.024 530.313 118.474 529.088H118.463V536.233C118.463 539.275 120.675 541.864 123.679 542.336L449.838 593.773C463.378 595.909 477.218 592.771 488.511 585.007L664.673 468.984C667.408 467.183 669.051 464.131 669.051 460.856V448.072L668.801 448.11Z" fill="#2F459A"/>
<path d="M616.87 482.339L590.841 267.986L258.405 216.532L161.483 493.08L505.777 546.372L529.831 467.655L616.87 482.339Z" fill="#C4651D"/>
<path d="M590.844 267.987L505.777 546.369L161.483 493.08L258.406 216.529L590.844 267.987Z" fill="#F0993C"/>
<mask id="mask0_3_2814" style="mask-type:luminance" maskUnits="userSpaceOnUse" x="272" y="237" width="292" height="289">
<path d="M489.62 525.234L484.64 524.463L557.968 284.493L272.655 240.332L273.703 237.338L563.869 282.25L489.62 525.234Z" fill="white"/>
</mask>
<g mask="url(#mask0_3_2814)">
<path d="M272.655 237.336H563.869V525.235H272.655" fill="#FAE1C3"/>
</g>
<path d="M557.967 284.493L483.716 527.478L183.205 480.964L267.802 239.581L557.967 284.493Z" fill="white"/>
<path d="M305.169 253.48C304.995 256.672 302.264 259.116 299.072 258.942C295.88 258.765 293.436 256.036 293.61 252.845C293.787 249.653 296.515 247.206 299.707 247.383C302.902 247.557 305.346 250.288 305.169 253.48Z" fill="#CCCCC9"/>
<path d="M363.882 262.929C363.708 266.121 360.977 268.565 357.785 268.391C354.593 268.214 352.149 265.486 352.323 262.294C352.5 259.102 355.229 256.656 358.42 256.832C361.612 257.007 364.059 259.738 363.882 262.929Z" fill="#CCCCC9"/>
<path d="M420.765 272.106C420.588 275.298 417.858 277.742 414.666 277.568C411.474 277.391 409.03 274.663 409.207 271.471C409.381 268.279 412.112 265.832 415.304 266.009C418.495 266.183 420.94 268.914 420.765 272.106Z" fill="#CCCCC9"/>
<path d="M481.276 280.77C481.099 283.963 478.369 286.411 475.176 286.234C471.983 286.06 469.541 283.328 469.715 280.135C469.892 276.945 472.621 274.499 475.814 274.673C479.007 274.851 481.45 277.58 481.276 280.77Z" fill="#CCCCC9"/>
<path d="M532.738 288.633C532.564 291.827 529.831 294.269 526.64 294.096C523.449 293.92 521.004 291.19 521.177 287.999C521.357 284.808 524.084 282.359 527.275 282.539C530.469 282.712 532.914 285.442 532.738 288.633Z" fill="#CCCCC9"/>
<path d="M292.118 217.976C295.462 215.102 299.536 213.826 303.592 214.373C307.646 214.923 311.232 217.245 313.693 220.904C314.625 222.296 315.354 223.818 315.87 225.423L322.001 226.373C321.375 223.269 320.178 220.329 318.429 217.724C315.05 212.689 310.053 209.489 304.361 208.718C298.666 207.941 292.996 209.693 288.398 213.645C283.894 217.514 280.95 223.05 280.111 229.233C279.273 235.412 280.632 241.533 283.942 246.462C287.321 251.499 292.316 254.7 298.011 255.471C298.087 255.482 298.164 255.491 298.241 255.494C299.712 255.573 301.021 254.513 301.223 253.027C301.432 251.465 300.341 250.028 298.779 249.816C294.725 249.266 291.137 246.944 288.679 243.282C286.15 239.514 285.116 234.797 285.768 230.001C286.42 225.205 288.673 220.933 292.118 217.976Z" fill="#26336D"/>
<path d="M350.828 227.427C354.174 224.553 358.25 223.281 362.304 223.825C366.358 224.375 369.943 226.696 372.4 230.359C373.261 231.636 373.941 233.027 374.449 234.494L380.636 235.451C379.994 232.486 378.82 229.679 377.143 227.177C373.763 222.143 368.765 218.941 363.073 218.169C357.378 217.394 351.708 219.147 347.11 223.098C342.606 226.966 339.662 232.503 338.824 238.684C337.985 244.865 339.343 250.984 342.653 255.916C346.032 260.95 351.028 264.152 356.723 264.924C356.798 264.935 356.875 264.94 356.953 264.946C358.422 265.026 359.733 263.966 359.933 262.48C360.146 260.917 359.052 259.478 357.489 259.267C353.435 258.718 349.85 256.396 347.393 252.734C344.86 248.966 343.828 244.248 344.477 239.453C345.13 234.655 347.387 230.384 350.828 227.427Z" fill="#26336D"/>
<path d="M407.712 236.601C411.056 233.728 415.131 232.45 419.187 232.999C423.241 233.549 426.829 235.869 429.286 239.534C430.069 240.698 430.706 241.952 431.195 243.274L437.431 244.24C436.77 241.416 435.63 238.742 434.025 236.351C430.643 231.315 425.648 228.116 419.954 227.343C414.261 226.568 408.594 228.32 403.991 232.273C399.489 236.141 396.548 241.677 395.707 247.858C394.867 254.042 396.227 260.16 399.535 265.09C402.914 270.125 407.914 273.324 413.605 274.1C413.681 274.111 413.76 274.116 413.836 274.121C415.308 274.2 416.614 273.139 416.818 271.654C417.03 270.092 415.934 268.653 414.375 268.441C410.319 267.892 406.733 265.571 404.274 261.909C401.747 258.142 400.71 253.424 401.363 248.625C402.013 243.832 404.268 239.561 407.712 236.601Z" fill="#26336D"/>
<path d="M479.699 241.665C485.505 242.454 490.067 246.854 491.952 252.681L498.085 253.628C496.218 244.477 489.407 237.225 480.463 236.009C468.851 234.445 457.969 243.636 456.215 256.525C454.464 269.417 462.495 281.185 474.116 282.765C474.192 282.777 474.269 282.783 474.345 282.786C475.815 282.866 477.126 281.805 477.324 280.32C477.541 278.762 476.444 277.323 474.883 277.109C466.382 275.954 460.542 267.065 461.871 257.292C463.201 247.523 471.195 240.516 479.699 241.665Z" fill="#26336D"/>
<path d="M531.161 249.524C535.217 250.077 538.801 252.397 541.259 256.059C542.21 257.471 542.949 259.016 543.464 260.651L549.584 261.598C548.964 258.469 547.76 255.502 546 252.879C542.622 247.842 537.625 244.642 531.93 243.87C520.304 242.292 509.431 251.497 507.681 264.387C505.931 277.277 513.962 289.047 525.581 290.625C525.655 290.635 525.736 290.642 525.81 290.649C527.28 290.726 528.592 289.668 528.791 288.181C529.003 286.62 527.911 285.183 526.35 284.967C517.846 283.818 512.01 274.927 513.339 265.155C514.664 255.381 522.658 248.378 531.161 249.524Z" fill="#26336D"/>
<path d="M256.409 439.482L284.643 443.854L294.449 415.872L266.216 411.503L256.409 439.482Z" fill="#ACBBE5"/>
<path d="M334.416 334.973L363.068 339.409L373.252 310.349L344.6 305.914L334.416 334.973Z" fill="#ACBBE5"/>
<path d="M386.88 391.411L358.021 386.944L348.486 414.154L377.344 418.621L386.88 391.411Z" fill="#ACBBE5"/>
<path d="M282.456 365.166L310.69 369.537L320.048 342.831L291.814 338.46L282.456 365.166Z" fill="#ACBBE5"/>
<path d="M269.568 401.938L297.802 406.309L307.337 379.099L279.103 374.731L269.568 401.938Z" fill="#ACBBE5"/>
<path d="M399.591 355.143L370.732 350.675L361.374 377.382L390.232 381.849L399.591 355.143Z" fill="#ACBBE5"/>
<path d="M347.006 385.239L318.355 380.804L308.816 408.014L337.471 412.449L347.006 385.239Z" fill="#ACBBE5"/>
<path d="M333.582 304.209L305.349 299.838L295.165 328.898L323.398 333.269L333.582 304.209Z" fill="#ACBBE5"/>
<path d="M359.718 348.971L331.066 344.535L321.705 371.242L350.356 375.677L359.718 348.971Z" fill="#ACBBE5"/>
<path d="M295.66 445.558L324.312 449.993L334.118 422.012L305.466 417.576L295.66 445.558Z" fill="#ACBBE5"/>
<path d="M373.994 428.184L345.136 423.716L335.33 451.698L364.185 456.165L373.994 428.184Z" fill="#ACBBE5"/>
<path d="M413.127 316.521L384.269 312.054L374.085 341.113L402.943 345.581L413.127 316.521Z" fill="#ACBBE5"/>
<path d="M439.605 361.335L410.61 356.845L401.252 383.553L430.244 388.04L439.605 361.335Z" fill="#ACBBE5"/>
<path d="M426.892 397.605L397.897 393.116L388.361 420.326L417.354 424.815L426.892 397.605Z" fill="#ACBBE5"/>
<path d="M453.139 322.715L424.146 318.226L413.963 347.285L442.955 351.774L453.139 322.715Z" fill="#ACBBE5"/>
<path d="M284.15 327.193L294.334 298.134L264.546 293.524L254.361 322.584L284.15 327.193Z" fill="#ACBBE5"/>
<path d="M414.004 434.377L385.009 429.888L375.203 457.87L404.198 462.359L414.004 434.377Z" fill="#ACBBE5"/>
<path d="M478.349 367.836L449.354 363.349L439.996 390.054L468.99 394.543L478.349 367.836Z" fill="#ACBBE5"/>
<path d="M465.641 404.103L436.645 399.617L427.11 426.824L456.105 431.313L465.641 404.103Z" fill="#ACBBE5"/>
<path d="M491.886 329.213L462.892 324.729L452.707 353.784L481.701 358.274L491.886 329.213Z" fill="#ACBBE5"/>
<path d="M452.75 440.877L423.757 436.391L413.952 464.37L442.945 468.859L452.75 440.877Z" fill="#ACBBE5"/>
<path d="M518.512 374.239L489.52 369.75L480.158 396.456L509.153 400.945L518.512 374.239Z" fill="#ACBBE5"/>
<path d="M505.804 410.506L476.808 406.018L467.273 433.228L496.265 437.717L505.804 410.506Z" fill="#ACBBE5"/>
<path d="M521.865 364.676L492.87 360.187L503.054 331.127L532.049 335.615L521.865 364.676Z" fill="#F57F9B"/>
<path d="M492.917 447.278L463.923 442.789L454.116 470.771L483.11 475.26L492.917 447.278Z" fill="#ACBBE5"/>
<path d="M258.551 400.234L268.086 373.024L238.299 368.414L228.763 395.624L258.551 400.234Z" fill="#ACBBE5"/>
<path d="M245.393 437.778L255.199 409.796L225.412 405.187L215.605 433.166L245.393 437.778Z" fill="#ACBBE5"/>
<path d="M241.651 358.852L271.438 363.462L280.797 336.755L251.01 332.146L241.651 358.852Z" fill="#ACBBE5"/>
<path d="M608.524 519.638C608.524 519.638 573.8 472.588 577.069 428.054C577.069 428.054 630.914 466.55 631.417 519.638H608.524Z" fill="#92D792"/>
<path d="M669.785 519.639C669.785 519.639 671.672 409.812 616.57 341.502C616.57 341.502 590.907 405.661 623.365 519.639H669.785Z" fill="#77CC66"/>
<path d="M641.235 478.554C640.107 464.862 638.358 451.258 636.293 437.714C635.272 430.941 634.133 424.188 632.951 417.442C631.768 410.697 630.511 403.967 629.199 397.251C626.558 383.816 623.729 370.421 620.596 357.102C623.398 370.496 625.892 383.95 628.194 397.433C629.341 404.176 630.428 410.927 631.441 417.689C632.45 424.45 633.42 431.217 634.275 437.998C635.997 451.553 637.404 465.151 638.18 478.763C638.551 485.567 638.768 492.375 638.704 499.166C638.641 505.906 638.094 513.048 637.128 519.639H641.372C642.188 512.794 642.377 505.962 642.275 499.161C642.169 492.268 641.778 485.399 641.235 478.554Z" fill="white"/>
<path d="M608.524 519.638C608.524 519.638 573.8 472.588 577.069 428.054C577.069 428.054 630.914 466.55 631.417 519.638H608.524Z" fill="#92D792"/>
<path d="M618.525 499.686C617.12 496.559 615.65 493.474 614.127 490.416C612.591 487.367 611.006 484.346 609.383 481.35C606.128 475.36 602.72 469.467 599.193 463.649C595.662 457.833 592.039 452.076 588.262 446.422C591.751 452.256 595.079 458.182 598.306 464.155C601.534 470.129 604.631 476.17 607.571 482.277C609.03 485.335 610.454 488.409 611.816 491.502C613.175 494.6 614.472 497.719 615.7 500.86C616.905 504.007 618.03 507.177 619.012 510.375C619.953 513.443 620.766 516.544 621.292 519.639H625.599C624.858 516.182 623.568 512.492 622.398 509.243C621.219 505.998 619.911 502.819 618.525 499.686Z" fill="white"/>
<path d="M672.43 519.639C672.43 519.639 691.046 439.378 669.785 399.371C669.785 399.371 630.912 428.307 645.255 519.639H672.43Z" fill="#92D792"/>
<path d="M656.679 505.32C656.675 500.574 656.847 495.811 657.101 491.051C657.355 486.289 657.724 481.527 658.146 476.767C658.564 472.007 659.055 467.253 659.596 462.499C660.129 457.745 660.719 452.996 661.342 448.252C661.965 443.506 662.624 438.765 663.321 434.029C664.718 424.555 666.222 415.095 667.898 405.661C665.886 415.031 664.05 424.434 662.317 433.863C661.448 438.574 660.621 443.297 659.83 448.024C659.035 452.754 658.277 457.487 657.572 462.233C656.863 466.98 656.199 471.731 655.609 476.496C655.015 481.262 654.474 486.037 654.052 490.832C653.622 495.623 653.278 500.431 653.114 505.263C652.967 510.023 652.967 514.804 653.401 519.639H658.088C657.498 515.198 656.699 509.648 656.679 505.32Z" fill="white"/>
<path d="M688.377 519.639H592.126C592.811 535.48 603.474 549.081 618.77 555.767C619.129 558.745 621.663 561.055 624.742 561.055H655.765C658.84 561.055 661.374 558.745 661.733 555.767C677.029 549.081 687.693 535.48 688.377 519.639Z" fill="#6571C0"/>
<path d="M688.22 521.791C688.292 521.078 688.343 520.362 688.377 519.639H592.126C592.156 520.362 592.211 521.078 592.283 521.791H688.22Z" fill="#2F459A"/>
<path d="M651.373 555.58C664.692 544.63 672.287 521.791 672.287 521.791H680.968C671.351 548.972 651.373 555.58 651.373 555.58Z" fill="#A5ACDE"/>
<path d="M743.152 270.133C743.152 308.933 714.383 340.389 678.895 340.389C643.406 340.389 614.637 308.933 614.637 270.133C614.637 231.328 643.406 199.872 678.895 199.872C714.383 199.872 743.152 231.328 743.152 270.133Z" fill="#454CA8"/>
<path d="M735.713 269.82C735.713 307.932 707.458 338.825 672.6 338.825C637.746 338.825 609.491 307.932 609.491 269.82C609.491 231.71 637.746 200.814 672.6 200.814C707.458 200.814 735.713 231.71 735.713 269.82Z" fill="#5A6CBD"/>
<path d="M723.285 269.821C723.285 300.426 700.592 325.238 672.602 325.238C644.607 325.238 621.918 300.426 621.918 269.821C621.918 239.215 644.607 214.406 672.602 214.406C700.592 214.406 723.285 239.215 723.285 269.821Z" fill="white"/>
<path d="M681.426 321.914C653.432 321.914 630.743 297.103 630.743 266.498C630.743 244.028 642.975 224.683 660.55 215.983C638.375 221.896 621.915 243.756 621.915 269.821C621.915 300.426 644.608 325.238 672.603 325.238C680.044 325.238 687.106 323.485 693.475 320.336C689.612 321.365 685.579 321.914 681.426 321.914Z" fill="#E5E7F1"/>
<path d="M672.742 269.85L672.474 273.581L638.061 271.121L638.329 267.391L672.742 269.85Z" fill="#7C7FC7"/>
<path d="M672.138 273.207L669.327 270.744L697.754 238.23L700.569 240.69L672.138 273.207Z" fill="#7C7FC7"/>
<path d="M675.063 265.985L662.439 280.423L663.771 281.591L676.399 267.152L675.063 265.985Z" fill="#5A6CBD"/>
<path d="M673.987 271.63C673.987 273.278 672.854 274.615 671.457 274.615C670.059 274.615 668.93 273.278 668.93 271.63C668.93 269.982 670.059 268.645 671.457 268.645C672.854 268.645 673.987 269.982 673.987 271.63Z" fill="#454CA8"/>
<path d="M194.411 586.304C194.411 590.723 169.009 594.306 137.675 594.306C106.341 594.306 80.9387 590.723 80.9387 586.304C80.9387 581.882 106.341 578.298 137.675 578.298C169.009 578.298 194.411 581.882 194.411 586.304Z" fill="#D2D9F1"/>
<path d="M270.712 337.508C270.712 337.508 270.849 337.546 270.916 337.554C271.149 337.586 271.404 337.549 271.669 337.444C272.186 336.702 272.636 335.716 272.91 334.512C273.773 330.715 272.626 328.852 272.39 328.522C272.363 328.485 272.342 328.48 272.342 328.48L176.249 291.82L176.245 291.833C176.208 291.814 176.173 291.79 176.134 291.774C174.902 291.305 173.194 293.27 172.32 296.164C171.926 297.469 171.771 298.74 171.83 299.785L270.712 337.508Z" fill="#F68835"/>
<path d="M172.969 302.256C173.008 302.272 173.048 302.275 173.087 302.285L173.083 302.299L269.128 338.942C269.128 338.942 269.257 338.977 269.324 338.985C270.5 339.146 272.24 337.468 272.91 334.512C273.773 330.715 272.626 328.852 272.39 328.522C272.363 328.485 272.342 328.48 272.342 328.48L176.249 291.82L176.245 291.833C176.208 291.814 176.173 291.79 176.134 291.774C174.902 291.305 173.194 293.27 172.32 296.164C171.446 299.059 171.737 301.787 172.969 302.256Z" fill="#454CA8"/>
<path d="M270.712 337.508C270.712 337.508 270.849 337.546 270.916 337.554C271.149 337.586 271.404 337.549 271.669 337.444C272.186 336.702 272.636 335.716 272.91 334.512C273.773 330.715 272.626 328.852 272.39 328.522C272.363 328.485 272.342 328.48 272.342 328.48L176.249 291.82L176.245 291.833C176.208 291.814 176.173 291.79 176.134 291.774C174.902 291.305 173.194 293.27 172.32 296.164C171.926 297.469 171.771 298.74 171.83 299.785L270.712 337.508Z" fill="#5A6CBD"/>
<path d="M272.39 328.522C272.626 328.852 273.773 330.715 272.91 334.512C272.264 337.361 270.626 339.017 269.455 338.991V338.996L282.842 338.848L272.363 328.493V328.496L272.39 328.522Z" fill="#1B1C31"/>
<path d="M269.455 338.991V338.996L279.913 338.881C279.972 338.784 280.025 338.68 280.073 338.575C280.371 337.921 280.451 337.176 280.341 336.38L272.363 328.493V328.496L272.39 328.522C272.626 328.852 273.773 330.715 272.91 334.512C272.264 337.361 270.626 339.017 269.455 338.991Z" fill="#F79171"/>
<path d="M185.684 307.107C185.684 307.107 185.684 307.107 185.684 307.107L185.192 306.919L185.684 307.107Z" fill="#F5F8FD"/>
<path d="M186.065 307.176C185.934 307.176 185.807 307.152 185.684 307.107L185.192 306.919L183.062 306.107L180.219 305.022C180.339 305.067 180.464 305.089 180.592 305.089C181.183 305.089 181.844 304.625 182.455 303.837L187.928 305.925C187.317 306.713 186.656 307.176 186.065 307.176Z" fill="#A3A4D9"/>
<path d="M187.928 305.925L182.455 303.837C183.068 303.049 183.631 301.934 184.025 300.629C184.896 297.745 184.61 295.025 183.387 294.543L188.849 296.625C189.999 297.065 190.328 299.469 189.657 302.141H189.656C189.608 302.331 189.556 302.524 189.497 302.717C189.408 303.012 189.308 303.296 189.203 303.569L189.206 303.572C188.847 304.51 188.403 305.314 187.928 305.925Z" fill="#B0B9E4"/>
<path d="M172.32 296.164C171.446 299.059 171.737 301.787 172.969 302.256C173.008 302.272 173.048 302.275 173.087 302.285L173.083 302.299L180.211 305.019C181.443 305.488 183.151 303.523 184.025 300.629C184.898 297.735 184.608 295.009 183.376 294.537L176.249 291.82L176.245 291.833C176.208 291.814 176.173 291.79 176.134 291.774C174.902 291.305 173.194 293.27 172.32 296.164Z" fill="#2F459A"/>
<path d="M173.085 302.293C173.046 302.283 173.007 302.272 172.969 302.256C173.008 302.272 173.048 302.275 173.087 302.285L173.085 302.293Z" fill="#ECF2FA"/>
<path d="M176.245 291.833C176.208 291.814 176.173 291.79 176.134 291.774C176.172 291.79 176.21 291.806 176.246 291.825L176.245 291.833Z" fill="#ECF2FA"/>
<path d="M173.35 302.325C173.26 302.325 173.172 302.315 173.085 302.293L173.088 302.285C173.048 302.275 173.008 302.272 172.969 302.256C172.825 302.199 172.693 302.114 172.575 302.001C171.696 301.154 171.552 298.78 172.292 296.258C172.258 296.379 172.225 296.496 172.195 296.614C172.228 296.491 172.261 296.365 172.298 296.239C172.305 296.215 172.313 296.188 172.32 296.164C172.332 296.127 172.344 296.086 172.356 296.049C172.394 295.928 172.434 295.808 172.475 295.69C172.437 295.8 172.399 295.912 172.363 296.027C173.159 293.495 174.591 291.705 175.753 291.705C175.839 291.705 175.923 291.715 176.006 291.734C176.049 291.745 176.092 291.758 176.134 291.774C176.173 291.79 176.208 291.814 176.245 291.833L176.246 291.825C177.384 292.415 177.63 295.063 176.783 297.866C175.996 300.474 174.533 302.325 173.35 302.325Z" fill="#495DAC"/>
<path d="M172.32 296.164C172.334 296.119 172.348 296.073 172.363 296.027C172.36 296.035 172.358 296.041 172.356 296.049C172.344 296.086 172.332 296.127 172.32 296.164Z" fill="#687ABB"/>
<path d="M172.356 296.049C172.358 296.041 172.36 296.035 172.363 296.027C172.399 295.912 172.437 295.8 172.475 295.69C172.434 295.808 172.394 295.928 172.356 296.049Z" fill="#7F8FC6"/>
<path d="M172.292 296.258C172.301 296.228 172.311 296.196 172.32 296.164C172.313 296.188 172.305 296.215 172.298 296.239C172.296 296.247 172.294 296.253 172.292 296.258Z" fill="#687ABB"/>
<path d="M172.195 296.614C172.225 296.496 172.258 296.379 172.292 296.258C172.294 296.253 172.296 296.247 172.298 296.239C172.261 296.365 172.228 296.491 172.195 296.614Z" fill="#7F8FC6"/>
<path d="M272.902 334.552C272.902 334.55 272.902 334.544 272.904 334.542C272.902 334.547 272.902 334.55 272.902 334.552Z" fill="#7A7DC7"/>
<path d="M272.66 335.41L189.206 303.572C189.311 303.298 189.408 303.012 189.497 302.717C189.556 302.524 189.609 302.331 189.657 302.141L273.025 333.947C272.993 334.132 272.955 334.317 272.91 334.512C272.91 334.52 272.907 334.531 272.904 334.539C272.904 334.539 272.904 334.539 272.904 334.542C272.902 334.544 272.902 334.55 272.902 334.552C272.832 334.853 272.749 335.137 272.66 335.41Z" fill="#8F9AD5"/>
<path d="M189.206 303.572L189.203 303.569C189.308 303.296 189.408 303.012 189.497 302.717C189.408 303.012 189.311 303.298 189.206 303.572ZM189.497 302.717C189.556 302.524 189.608 302.331 189.656 302.141C189.609 302.331 189.556 302.524 189.497 302.717Z" fill="#CAD1EE"/>
<path d="M140.36 304.973C144.214 304.153 144.365 299.396 144.365 299.396C142.318 299.093 141.926 291.509 143.978 291.52C146.03 291.528 145.899 293.262 147.076 293.345C147.992 293.409 150.466 289.577 151.482 285.369C152.256 282.158 153.624 280.639 154.043 280.232C154.102 280.398 154.157 280.567 154.2 280.749C154.2 280.749 158.791 297.702 152.596 306.42C149.839 310.301 143.318 307.492 139.118 305.072C139.534 305.089 139.949 305.059 140.36 304.973Z" fill="#F8A66C"/>
<path d="M154.173 280.114C154.173 280.114 152.404 281.547 151.482 285.369C150.466 289.577 147.992 293.409 147.076 293.345C145.899 293.262 146.03 291.528 143.978 291.52C141.926 291.509 142.318 299.093 144.365 299.396C144.365 299.396 144.214 304.153 140.36 304.973C136.93 305.702 133.245 302.521 131.143 300.455C129.041 298.386 122.151 286.851 123.807 278.071C125.463 269.292 134.73 267.574 140.182 267.603C145.634 267.633 153.635 269.174 155.565 269.225C157.494 269.278 159.692 275.986 154.173 280.114Z" fill="#26336D"/>
<path d="M135.937 314.195C139.028 315.999 144.062 316.95 145.714 316.696C146.766 316.535 147.399 316.369 147.946 316.457C147.946 313 148.471 309.251 148.698 308.337C145.657 308.428 141.884 306.667 139.118 305.072H139.121C137.768 305.022 136.411 304.464 135.157 303.703C134.706 305.048 132.592 308.787 131.267 311.223C132.154 311.424 133.257 312.63 135.937 314.195Z" fill="#F8A66C"/>
<path d="M139.118 305.072H139.121H139.112C138.948 305.064 138.783 305.051 138.619 305.03C138.543 305.022 138.467 305.005 138.39 304.992C138.3 304.979 138.21 304.965 138.12 304.946C138.016 304.925 137.911 304.896 137.807 304.869C137.746 304.853 137.686 304.839 137.625 304.823C137.502 304.788 137.379 304.745 137.256 304.705C137.216 304.692 137.175 304.678 137.135 304.665C136.997 304.614 136.859 304.561 136.722 304.504L136.65 304.475C136.5 304.41 136.351 304.344 136.203 304.271L136.172 304.258C136.018 304.183 135.865 304.102 135.713 304.022L135.699 304.014C135.546 303.931 135.393 303.842 135.242 303.751L135.234 303.749C137.201 305.55 141.188 309.082 143.803 310.577C145.01 311.269 146.75 312.526 148.043 313.683C148.205 311.199 148.531 309.009 148.698 308.339V308.337C145.657 308.428 141.884 306.667 139.118 305.072Z" fill="#E86B56"/>
<path d="M96.3825 541.473C96.8911 532.521 97.7501 507.136 105.028 487.5C112.178 468.215 113.862 445.196 113.89 435.948C113.91 429.376 112.778 416.429 112.592 412.578C116.433 415.657 129.191 422.414 143.72 422.446C154.006 422.47 159.727 422.004 162.699 421.513C163.053 426.46 164.245 443.551 164.542 453.949C164.892 466.207 165.685 513.475 166.836 521.721C167.987 529.967 170.1 566.627 169.094 569.527C168.089 572.427 165.943 572.759 162.822 573.71C159.701 574.664 155.779 574.822 155.239 573.662C154.698 572.499 150.784 563.944 145.614 543.93C140.445 523.913 135.583 494.621 135.583 494.621C135.583 494.621 128.578 516.755 120.404 537.273C112.23 557.788 106.277 570.65 105.589 571.162C104.901 571.673 101.49 570.738 99.9528 570.296C98.4158 569.854 94.7364 568.731 94.5367 566.531C94.3368 564.328 95.8741 550.424 96.3825 541.473Z" fill="#274184"/>
<path d="M160.878 421.765C161.575 421.682 162.179 421.599 162.698 421.513C163.053 426.46 164.245 443.551 164.542 453.949C164.892 466.207 165.685 513.475 166.836 521.721C167.987 529.967 170.1 566.627 169.094 569.527C168.089 572.427 165.943 572.759 162.822 573.71C159.701 574.664 155.779 574.822 155.239 573.662C154.698 572.499 150.783 563.944 145.614 543.93C140.445 523.913 135.583 494.621 135.583 494.621C135.583 494.621 145.576 468.059 147.33 461.416C148.886 455.514 156.719 435.184 160.878 421.765Z" fill="#26336D"/>
<path d="M162.822 573.71C164.802 573.107 166.389 572.751 167.542 571.834C168.474 572.708 170.149 574.096 171.711 575.2C174.328 577.052 177.018 577.958 179.052 578.628C181.086 579.301 186.456 580.582 184.736 582.616C183.287 584.328 178.177 584.666 174.197 584.789C169.784 584.926 166.266 583.621 165.576 583.449C164.886 583.281 165.175 584.583 165.101 584.95C165.027 585.315 159.248 586.456 158.365 585.368C157.745 584.602 156.696 579.25 156.451 578.001C156.306 577.264 156.078 575.578 155.974 574.217C157.371 574.721 160.347 574.466 162.822 573.71Z" fill="#201E26"/>
<path d="M93.2607 570.802C93.5258 570.116 94.2119 568.624 94.8395 567.442C95.7847 569.05 98.6443 569.921 99.9527 570.296C101.173 570.647 103.572 571.309 104.854 571.309C105.245 572.737 106.495 576.093 106.97 577.939C107.946 581.729 108.299 584.444 109.86 586.001C112.418 588.549 115.451 590.013 114.642 591.304C114.164 592.068 108.182 592.953 105.378 590.948C101.682 588.308 98.5446 581.252 98.0531 580.705C97.5619 580.156 97.1132 581.407 96.8565 581.667C96.5995 581.927 91.1232 579.47 90.9578 578.044C90.842 577.044 92.804 571.982 93.2607 570.802Z" fill="#201E26"/>
<path d="M148.859 316.905C147.986 316.176 147.365 316.444 145.714 316.696C144.062 316.95 139.028 315.999 135.937 314.195C132.845 312.389 131.852 311.06 130.868 311.204C129.883 311.346 123.749 315.305 120.753 320.241C118.33 324.232 116.499 325.939 114.073 329.225C111.365 332.894 92.91 362.349 87.9381 371.754C82.9664 381.158 83.4244 410.134 83.7538 410.206C84.0832 410.276 87.4656 410.335 89.1186 410.26C90.7719 410.187 92.7811 409.941 93.1938 409.306C93.6065 408.671 98.2638 394.274 99.1887 389.669C100.114 385.068 102.012 377.285 102.555 376.69C103.097 376.095 106.222 373.991 108.405 372.394C110.588 370.797 112.76 368.749 113.002 369.009C113.245 369.267 114.062 383.253 113.345 390.406C112.628 397.557 111.138 409.724 111.418 411.302C111.698 412.878 126.46 422.408 143.72 422.446C160.979 422.486 165.387 421.146 165.517 420.623C165.648 420.098 166.542 403.801 166.531 395.871C166.52 387.941 165.439 354.585 164.295 349.03C164.295 349.03 186.574 349.233 195.464 346.902C204.355 344.57 222.726 333.555 224.163 332.328C225.6 331.098 230.083 327.338 230.165 326.614C230.246 325.891 228.908 323.626 227.986 322.71C227.064 321.793 225.024 320.903 224.607 321.002C224.189 321.102 214.136 324.602 209.745 326.1C205.354 327.598 193.964 332.224 193.217 332.25C192.47 332.28 178.638 328.311 171.473 326.164C164.307 324.02 154.054 322.393 153.713 322.216C153.372 322.04 151.287 318.933 148.859 316.905Z" fill="#F03656"/>
<path d="M137.428 349.534C144.472 351.04 164.295 349.03 164.295 349.03C164.696 350.975 165.089 356.341 165.431 362.826C164.148 361.379 162.647 360.146 160.937 359.471C155.882 357.48 142.699 351.809 137.428 349.534Z" fill="#DA2541"/>
<path d="M114.073 329.225C115.297 327.568 116.37 326.311 117.444 324.961C117.014 326.236 114.701 333.531 113.503 346.202C112.179 360.208 113.079 369.09 113.003 369.009C112.76 368.749 110.588 370.797 108.405 372.394C106.222 373.991 103.097 376.095 102.555 376.69C102.012 377.285 100.114 385.068 99.1887 389.669C98.2638 394.274 93.6065 408.671 93.1938 409.306C92.7811 409.941 90.7719 410.187 89.1186 410.26C87.4656 410.335 84.0832 410.276 83.7538 410.206C83.4247 410.134 82.9664 381.158 87.9381 371.754C92.91 362.349 111.365 332.894 114.073 329.225Z" fill="#DA2541"/>
<path d="M84.316 410.246C85.4197 410.295 87.8102 410.319 89.1186 410.26C90.2546 410.209 91.559 410.078 92.3978 409.793C92.7902 410.538 93.4503 412.16 93.0467 414.119C92.4911 416.818 91.6453 418.758 91.0195 418.908C90.3932 419.061 89.9716 417.978 90.1067 417.08C90.2415 416.185 90.4283 414.993 90.1335 414.475C90.1335 414.475 89.3351 416.046 88.9607 418.142C88.5863 420.237 89.3196 422.261 89.2534 422.647C89.1872 423.035 88.9275 423.314 88.7592 423.365C88.7592 423.365 88.8728 423.85 88.6306 424.206C88.3883 424.56 87.9927 424.37 87.9927 424.37C87.9927 424.37 87.7293 424.898 87.379 424.716C87.0344 424.533 86.117 423.301 85.5933 421.245C85.5933 421.245 85.2179 421.526 85.03 421.189C84.8424 420.854 84.5948 420.052 84.0896 417.088C83.6659 414.601 83.6037 413.09 84.316 410.246Z" fill="#F8A46B"/>
<path d="M227.986 322.71C227.272 321.999 225.891 321.308 225.109 321.077C225.241 320.697 225.34 320.265 225.37 319.78C225.497 317.757 225.879 316.966 226.372 316.698C226.866 316.43 227.561 316.54 227.561 316.54C227.564 316.326 228.344 314.562 229.537 313.217C230.729 311.872 232.558 312.582 232.558 312.582C232.558 312.582 233.753 311.914 234.682 312.241C235.611 312.568 235.995 313.555 235.995 313.555C235.995 313.555 237.202 313.313 238.048 313.705C238.895 314.093 238.943 315.267 239.084 315.331C239.225 315.398 240.249 315.206 240.481 317.323C240.713 319.44 235.339 322.155 233.721 324.35C232.185 326.437 230.343 326.459 230.163 326.456C230.076 325.607 228.85 323.567 227.986 322.71Z" fill="#F8A46B"/>
</svg>
