<svg width="107" height="28" viewBox="0 0 107 28" fill="none" xmlns="http://www.w3.org/2000/svg">
<path d="M20.6325 5.84251H13.2125V27H7.94502V5.84251H0.525024V1.60751H20.6325V5.84251Z" fill="#EF324D"/>
<path d="M28.7224 19.4575C27.5441 19.5158 26.5641 19.6208 25.7824 19.7725C25.0008 19.9125 24.3766 20.0992 23.9099 20.3325C23.4549 20.5658 23.1283 20.8342 22.9299 21.1375C22.7433 21.4292 22.6499 21.75 22.6499 22.1C22.6499 22.8 22.8424 23.2959 23.2274 23.5875C23.6241 23.8792 24.1724 24.025 24.8724 24.025C25.6774 24.025 26.3716 23.885 26.9549 23.605C27.5499 23.3133 28.1391 22.8642 28.7224 22.2575V19.4575ZM18.8874 11.46C19.9491 10.5033 21.1216 9.79168 22.4049 9.32502C23.6883 8.84668 25.0766 8.60752 26.5699 8.60752C27.6433 8.60752 28.5999 8.78252 29.4399 9.13252C30.2916 9.48252 31.0091 9.97252 31.5924 10.6025C32.1874 11.2208 32.6424 11.9617 32.9574 12.825C33.2724 13.6883 33.4299 14.6333 33.4299 15.66V27H31.2249C30.7699 27 30.4199 26.9358 30.1749 26.8075C29.9416 26.6792 29.7491 26.4108 29.5974 26.0025L29.2124 24.8475C28.7574 25.2442 28.3141 25.5942 27.8824 25.8975C27.4624 26.2008 27.0249 26.4575 26.5699 26.6675C26.1149 26.8659 25.6249 27.0175 25.0999 27.1225C24.5866 27.2275 24.0091 27.28 23.3674 27.28C22.5741 27.28 21.8508 27.175 21.1974 26.965C20.5441 26.755 19.9783 26.4458 19.4999 26.0375C19.0333 25.6175 18.6716 25.0984 18.4149 24.48C18.1583 23.8617 18.0299 23.15 18.0299 22.345C18.0299 21.68 18.1991 21.015 18.5374 20.35C18.8758 19.685 19.4533 19.0842 20.2699 18.5475C21.0983 17.9992 22.1949 17.55 23.5599 17.2C24.9366 16.8383 26.6574 16.6342 28.7224 16.5875V15.66C28.7224 14.5283 28.4833 13.7 28.0049 13.175C27.5266 12.6383 26.8383 12.37 25.9399 12.37C25.2749 12.37 24.7208 12.4517 24.2774 12.615C23.8341 12.7667 23.4433 12.9358 23.1049 13.1225C22.7783 13.2975 22.4691 13.4667 22.1774 13.63C21.8858 13.7817 21.5474 13.8575 21.1624 13.8575C20.8241 13.8575 20.5383 13.7758 20.3049 13.6125C20.0833 13.4375 19.8966 13.2333 19.7449 13L18.8874 11.46Z" fill="#EF324D"/>
<path d="M48.4176 12.6675C48.2893 12.8658 48.1551 13.0117 48.0151 13.105C47.8868 13.1867 47.7059 13.2275 47.4726 13.2275C47.2393 13.2275 47.0001 13.1692 46.7551 13.0525C46.5101 12.9358 46.2359 12.8133 45.9326 12.685C45.6293 12.545 45.2793 12.4167 44.8826 12.3C44.4976 12.1833 44.0484 12.125 43.5351 12.125C42.7534 12.125 42.1468 12.2883 41.7151 12.615C41.2834 12.93 41.0676 13.35 41.0676 13.875C41.0676 14.2367 41.1901 14.54 41.4351 14.785C41.6801 15.03 42.0009 15.2458 42.3976 15.4325C42.8059 15.6075 43.2668 15.7767 43.7801 15.94C44.2934 16.0917 44.8184 16.2608 45.3551 16.4475C45.9034 16.6342 46.4343 16.85 46.9476 17.095C47.4609 17.34 47.9159 17.6492 48.3126 18.0225C48.7209 18.3842 49.0476 18.8275 49.2926 19.3525C49.5376 19.8658 49.6601 20.49 49.6601 21.225C49.6601 22.1 49.4968 22.9108 49.1701 23.6575C48.8551 24.3925 48.3884 25.0283 47.7701 25.565C47.1518 26.1017 46.3818 26.5217 45.4601 26.825C44.5384 27.1283 43.4768 27.28 42.2751 27.28C41.6568 27.28 41.0443 27.2217 40.4376 27.105C39.8309 27 39.2534 26.8484 38.7051 26.65C38.1568 26.44 37.6434 26.2008 37.1651 25.9325C36.6868 25.6642 36.2726 25.3725 35.9226 25.0575L37.0426 23.255C37.1709 23.045 37.3284 22.8817 37.5151 22.765C37.7134 22.6484 37.9643 22.59 38.2676 22.59C38.5593 22.59 38.8276 22.6658 39.0726 22.8175C39.3176 22.9575 39.5918 23.115 39.8951 23.29C40.1984 23.4533 40.5543 23.6108 40.9626 23.7625C41.3826 23.9025 41.9018 23.9725 42.5201 23.9725C42.9868 23.9725 43.3893 23.92 43.7276 23.815C44.0659 23.71 44.3401 23.57 44.5501 23.395C44.7601 23.2083 44.9118 23.0042 45.0051 22.7825C45.1101 22.5492 45.1626 22.31 45.1626 22.065C45.1626 21.6683 45.0343 21.3475 44.7776 21.1025C44.5326 20.8458 44.2059 20.6242 43.7976 20.4375C43.4009 20.2508 42.9401 20.0817 42.4151 19.93C41.8901 19.7783 41.3534 19.6092 40.8051 19.4225C40.2684 19.2358 39.7376 19.0142 39.2126 18.7575C38.6993 18.5009 38.2384 18.18 37.8301 17.795C37.4334 17.3983 37.1068 16.9142 36.8501 16.3425C36.6051 15.7708 36.4826 15.0767 36.4826 14.26C36.4826 13.5133 36.6284 12.8075 36.9201 12.1425C37.2118 11.4658 37.6493 10.8708 38.2326 10.3575C38.8159 9.84418 39.5393 9.43585 40.4026 9.13252C41.2776 8.82918 42.2868 8.67752 43.4301 8.67752C44.7134 8.67752 45.8801 8.88752 46.9301 9.30752C47.9801 9.72752 48.8434 10.2758 49.5201 10.9525L48.4176 12.6675Z" fill="#EF324D"/>
<path d="M57.5135 0.907515V15.7125H58.3185C58.6218 15.7125 58.861 15.6717 59.036 15.59C59.211 15.4967 59.386 15.3333 59.561 15.1L63.551 9.78002C63.7493 9.51168 63.971 9.30752 64.216 9.16752C64.4727 9.02752 64.7935 8.95752 65.1785 8.95752H69.5885L64.4085 15.5375C64.0002 16.0858 63.5277 16.5175 62.991 16.8325C63.2593 17.0192 63.4927 17.235 63.691 17.48C63.8893 17.725 64.0818 17.9992 64.2685 18.3025L69.851 27H65.511C65.1377 27 64.8168 26.9417 64.5485 26.825C64.2802 26.6967 64.0585 26.475 63.8835 26.16L59.8235 19.5275C59.6602 19.2475 59.491 19.0667 59.316 18.985C59.141 18.9033 58.8785 18.8625 58.5285 18.8625H57.5135V27H52.6835V0.907515H57.5135Z" fill="#EF324D"/>
<path d="M76.7599 8.95752V27H71.9299V8.95752H76.7599ZM77.3374 3.83001C77.3374 4.23835 77.2558 4.61752 77.0924 4.96752C76.9291 5.31752 76.7074 5.62668 76.4274 5.89501C76.1591 6.16335 75.8383 6.37335 75.4649 6.52501C75.1033 6.67668 74.7125 6.75252 74.2924 6.75252C73.8958 6.75252 73.5166 6.67668 73.1549 6.52501C72.8049 6.37335 72.4958 6.16335 72.2274 5.89501C71.9591 5.62668 71.7433 5.31752 71.5799 4.96752C71.4283 4.61752 71.3524 4.23835 71.3524 3.83001C71.3524 3.42168 71.4283 3.04252 71.5799 2.69252C71.7433 2.33085 71.9591 2.01585 72.2274 1.74752C72.4958 1.47918 72.8049 1.26918 73.1549 1.11751C73.5166 0.965848 73.8958 0.890015 74.2924 0.890015C74.7125 0.890015 75.1033 0.965848 75.4649 1.11751C75.8383 1.26918 76.1591 1.47918 76.4274 1.74752C76.7074 2.01585 76.9291 2.33085 77.0924 2.69252C77.2558 3.04252 77.3374 3.42168 77.3374 3.83001Z" fill="#EF324D"/>
<path d="M89.0192 8.67752C90.3726 8.67752 91.6034 8.89335 92.7117 9.32502C93.8201 9.75668 94.7709 10.375 95.5642 11.18C96.3576 11.9733 96.9701 12.9417 97.4017 14.085C97.8334 15.2283 98.0492 16.5175 98.0492 17.9525C98.0492 19.3875 97.8334 20.6825 97.4017 21.8375C96.9701 22.9809 96.3576 23.955 95.5642 24.76C94.7709 25.565 93.8201 26.1834 92.7117 26.615C91.6034 27.0467 90.3726 27.2625 89.0192 27.2625C87.6542 27.2625 86.4117 27.0467 85.2917 26.615C84.1834 26.1834 83.2326 25.565 82.4392 24.76C81.6459 23.955 81.0276 22.9809 80.5842 21.8375C80.1526 20.6825 79.9367 19.3875 79.9367 17.9525C79.9367 16.5175 80.1526 15.2283 80.5842 14.085C81.0276 12.9417 81.6459 11.9733 82.4392 11.18C83.2326 10.375 84.1834 9.75668 85.2917 9.32502C86.4117 8.89335 87.6542 8.67752 89.0192 8.67752ZM89.0192 23.64C90.3959 23.64 91.4167 23.1675 92.0817 22.2225C92.7467 21.2659 93.0792 19.8483 93.0792 17.97C93.0792 16.1033 92.7467 14.6975 92.0817 13.7525C91.4167 12.7958 90.3959 12.3175 89.0192 12.3175C87.6076 12.3175 86.5692 12.7958 85.9042 13.7525C85.2392 14.6975 84.9067 16.1033 84.9067 17.97C84.9067 19.8483 85.2392 21.2659 85.9042 22.2225C86.5692 23.1675 87.6076 23.64 89.0192 23.64Z" fill="#EF324D"/>
<path d="M100.399 24.4625C100.399 24.0775 100.469 23.7158 100.609 23.3775C100.761 23.0275 100.965 22.73 101.222 22.485C101.479 22.2283 101.776 22.03 102.114 21.89C102.464 21.7384 102.844 21.6625 103.252 21.6625C103.649 21.6625 104.022 21.7384 104.372 21.89C104.722 22.03 105.025 22.2283 105.282 22.485C105.539 22.73 105.737 23.0275 105.877 23.3775C106.029 23.7158 106.104 24.0775 106.104 24.4625C106.104 24.8592 106.029 25.2267 105.877 25.565C105.737 25.9033 105.539 26.2008 105.282 26.4575C105.025 26.7025 104.722 26.895 104.372 27.035C104.022 27.175 103.649 27.245 103.252 27.245C102.844 27.245 102.464 27.175 102.114 27.035C101.776 26.895 101.479 26.7025 101.222 26.4575C100.965 26.2008 100.761 25.9033 100.609 25.565C100.469 25.2267 100.399 24.8592 100.399 24.4625Z" fill="#EF324D"/>
</svg>
